<svg width="25" height="24" viewBox="0 0 25 24" fill="none" xmlns="http://www.w3.org/2000/svg">
<path d="M22.2603 7.20301C22.1464 6.78041 21.9238 6.39501 21.6147 6.08518C21.3056 5.77534 20.9207 5.55187 20.4983 5.43701C18.9323 5.00701 12.6673 5.00001 12.6673 5.00001C12.6673 5.00001 6.40332 4.99301 4.83632 5.40401C4.41425 5.52415 4.03014 5.75078 3.72089 6.06214C3.41163 6.3735 3.18761 6.75913 3.07032 7.18201C2.65732 8.74801 2.65332 11.996 2.65332 11.996C2.65332 11.996 2.64932 15.26 3.05932 16.81C3.28932 17.667 3.96432 18.344 4.82232 18.575C6.40432 19.005 12.6523 19.012 12.6523 19.012C12.6523 19.012 18.9173 19.019 20.4833 18.609C20.9058 18.4943 21.2911 18.2714 21.601 17.9622C21.9109 17.653 22.1347 17.2682 22.2503 16.846C22.6643 15.281 22.6673 12.034 22.6673 12.034C22.6673 12.034 22.6873 8.76901 22.2603 7.20301ZM10.6633 15.005L10.6683 9.00501L15.8753 12.01L10.6633 15.005Z" fill="black"/>
</svg>
